<?xml version="1.0" standalone="no"?>
<!DOCTYPE svg PUBLIC "-//W3C//DTD SVG 20010904//EN"
 "http://www.w3.org/TR/2001/REC-SVG-20010904/DTD/svg10.dtd">
<svg version="1.0" xmlns="http://www.w3.org/2000/svg"
 width="192.000000pt" height="192.000000pt" viewBox="0 0 192.000000 192.000000"
 preserveAspectRatio="xMidYMid meet">

<g transform="translate(0.000000,192.000000) scale(0.100000,-0.100000)"
fill="#000000" stroke="none">
<path d="M694 1359 c-4 -6 43 -61 110 -128 104 -104 132 -141 108 -141 -4 0
-59 52 -122 115 -108 109 -140 132 -140 102 0 -7 54 -66 120 -132 80 -80 116
-123 110 -129 -7 -7 -52 31 -135 114 -98 98 -127 122 -137 112 -13 -13 -5 -22
155 -182 61 -61 80 -90 59 -90 -4 0 -59 52 -122 115 -63 63 -120 115 -127 115
-35 0 -2 -47 117 -165 l129 -129 68 61 c59 52 68 65 71 98 3 37 -1 43 -115
157 -65 65 -123 118 -130 118 -6 0 -15 -5 -19 -11z"/>
<path d="M1125 1326 c-89 -42 -144 -126 -145 -222 l0 -50 -92 -90 c-51 -49
-140 -132 -197 -184 -57 -52 -107 -105 -112 -118 -19 -49 37 -104 89 -88 11 4
72 64 135 134 64 70 148 159 189 199 72 70 73 71 135 75 119 8 211 97 221 215
11 130 -94 190 -223 129z m160 -41 c46 -45 27 -153 -37 -212 -36 -34 -91 -53
-152 -53 l-54 0 -140 -147 c-77 -82 -159 -171 -183 -200 -51 -60 -77 -73 -95
-48 -8 10 -10 23 -6 30 4 7 61 61 127 121 66 60 155 143 199 184 l78 76 2 64
c1 90 36 148 108 184 67 34 121 34 153 1z"/>
<path d="M1041 926 c-9 -10 20 -42 140 -151 115 -106 149 -143 147 -159 -6
-44 -41 -30 -107 46 -35 40 -97 109 -138 152 -63 67 -76 77 -88 65 -11 -12 9
-38 132 -171 155 -169 167 -177 217 -137 19 15 26 30 26 54 0 30 -13 44 -127
148 -71 63 -139 127 -152 141 -28 30 -34 31 -50 12z"/>
</g>
</svg>
